<svg xmlns="http://www.w3.org/2000/svg" xmlns:xlink="http://www.w3.org/1999/xlink" width="500" zoomAndPan="magnify" viewBox="0 0 375 374.999991" height="500" preserveAspectRatio="xMidYMid meet" version="1.0"><defs><g/></defs><g fill="#ffffff" fill-opacity="1"><g transform="translate(58.678376, 223.034693)"><g><path d="M 7.457031 -42.007812 L 0.578125 -42.007812 C 0.261719 -42.007812 0 -41.742188 0 -41.535156 L 0 -25.046875 L 8.035156 -25.046875 L 8.035156 -34.339844 C 17.171875 -34.8125 23.945312 -30.980469 23.945312 -21.003906 C 23.945312 -8.035156 13.125 -7.507812 8.035156 -7.71875 L 8.035156 -16.960938 L 0 -16.960938 L 0 -0.472656 C 0 -0.261719 0.261719 0 0.578125 0 L 7.457031 0 C 17.90625 0 32.03125 -3.046875 32.03125 -21.003906 C 32.03125 -39.644531 17.695312 -42.007812 7.457031 -42.007812 Z M 7.457031 -42.007812 "/></g></g></g><g fill="#ffffff" fill-opacity="1"><g transform="translate(98.106846, 223.034693)"><g><path d="M 30.980469 -42.007812 L 24.152344 -42.007812 C 23.785156 -42.007812 23.574219 -41.742188 23.574219 -41.535156 L 23.574219 -14.019531 C 23.574219 -9.765625 19.691406 -7.71875 15.753906 -7.71875 C 11.867188 -7.71875 8.402344 -9.925781 7.929688 -14.070312 L 7.929688 -34.390625 L 0 -34.390625 L 0 -14.019531 C 0 -5.355469 7.089844 0 15.753906 0 C 24.679688 0 31.503906 -5.144531 31.503906 -14.019531 L 31.503906 -41.535156 C 31.503906 -41.742188 31.242188 -42.007812 30.980469 -42.007812 Z M 30.980469 -42.007812 "/></g></g></g><g fill="#ffffff" fill-opacity="1"><g transform="translate(136.957812, 223.034693)"><g><path d="M 37.59375 -10.132812 L 45.578125 -10.132812 L 45.578125 -41.535156 C 45.578125 -41.742188 45.367188 -42.007812 45 -42.007812 L 38.066406 -42.007812 C 37.859375 -42.007812 37.59375 -41.847656 37.492188 -41.691406 L 23.15625 -10.921875 L 8.085938 -41.691406 C 8.035156 -41.847656 7.71875 -42.007812 7.5625 -42.007812 L 0.523438 -42.007812 C 0.15625 -42.007812 0 -41.742188 0 -41.535156 L 0 -0.472656 C 0 -0.261719 0.15625 0 0.523438 0 L 7.457031 0 C 7.769531 0 8.035156 -0.261719 8.035156 -0.472656 L 8.035156 -24.046875 L 19.429688 -1.996094 C 19.480469 -1.835938 19.796875 -1.679688 19.953125 -1.679688 L 26.410156 -1.679688 C 26.570312 -1.679688 26.832031 -1.835938 26.882812 -1.996094 L 37.59375 -23.472656 Z M 37.59375 -10.132812 "/></g></g></g><g fill="#ffffff" fill-opacity="1"><g transform="translate(190.613754, 223.034693)"><g><path d="M 17.117188 -7.195312 L 12.917969 -7.195312 L 12.917969 -42.007812 L 4.882812 -42.007812 L 4.882812 -7.195312 L 0.578125 -7.195312 C 0.261719 -7.195312 0 -6.984375 0 -6.722656 L 0 -0.472656 C 0 -0.261719 0.261719 0 0.578125 0 L 17.117188 0 C 17.484375 0 17.695312 -0.261719 17.695312 -0.472656 L 17.695312 -6.722656 C 17.695312 -6.984375 17.484375 -7.195312 17.117188 -7.195312 Z M 17.117188 -7.195312 "/></g></g></g><g fill="#ffffff" fill-opacity="1"><g transform="translate(214.974745, 223.034693)"><g><path d="M 8.664062 -26.777344 L 8.664062 -0.472656 C 8.664062 -0.261719 8.875 0 9.242188 0 L 16.015625 0 C 16.382812 0 16.644531 -0.261719 16.644531 -0.472656 L 16.644531 -26.777344 Z M 0.578125 -34.8125 L 24.679688 -34.8125 C 25.046875 -34.8125 25.257812 -35.023438 25.257812 -35.285156 L 25.257812 -41.535156 C 25.257812 -41.742188 25.046875 -42.007812 24.679688 -42.007812 L 0.578125 -42.007812 C 0.261719 -42.007812 0 -41.742188 0 -41.535156 L 0 -35.285156 C 0 -35.023438 0.261719 -34.8125 0.578125 -34.8125 Z M 0.578125 -34.8125 "/></g></g></g><g fill="#ffffff" fill-opacity="1"><g transform="translate(247.263217, 223.034693)"><g><path d="M 28.667969 -0.683594 C 26.042969 -6.511719 23.207031 -12.285156 20.582031 -18.21875 C 24.785156 -19.742188 28.300781 -23.101562 28.300781 -29.507812 C 28.300781 -41.902344 16.488281 -42.007812 14.125 -42.007812 L 0.523438 -42.007812 C 0.261719 -42.007812 0 -41.742188 0 -41.535156 L 0 -34.390625 L 14.125 -34.390625 C 15.382812 -34.390625 20.320312 -34.128906 20.320312 -29.507812 C 20.320312 -24.886719 15.855469 -24.679688 14.125 -24.679688 L 0 -24.679688 L 0 -0.472656 C 0 -0.261719 0.261719 0 0.523438 0 L 7.402344 0 C 7.71875 0 7.980469 -0.261719 7.980469 -0.472656 L 7.980469 -16.960938 L 12.496094 -16.960938 L 20.164062 -0.316406 C 20.214844 -0.15625 20.53125 0 20.6875 0 L 28.195312 0 C 28.617188 0 28.828125 -0.316406 28.667969 -0.683594 Z M 28.667969 -0.683594 "/></g></g></g><g fill="#ffffff" fill-opacity="1"><g transform="translate(283.226686, 223.034693)"><g><path d="M 30.980469 -42.007812 L 24.152344 -42.007812 C 23.785156 -42.007812 23.574219 -41.742188 23.574219 -41.535156 L 23.574219 -14.019531 C 23.574219 -9.765625 19.691406 -7.71875 15.753906 -7.71875 C 11.867188 -7.71875 8.402344 -9.925781 7.929688 -14.070312 L 7.929688 -34.390625 L 0 -34.390625 L 0 -14.019531 C 0 -5.355469 7.089844 0 15.753906 0 C 24.679688 0 31.503906 -5.144531 31.503906 -14.019531 L 31.503906 -41.535156 C 31.503906 -41.742188 31.242188 -42.007812 30.980469 -42.007812 Z M 30.980469 -42.007812 "/></g></g></g><path stroke-linecap="butt" transform="matrix(-0.75, 0, 0, -0.75, 337.491544, 162.943525)" fill="none" stroke-linejoin="miter" d="M -0.000858083 4.997617 L 84.431439 4.997617 " stroke="#ffffff" stroke-width="10" stroke-opacity="1" stroke-miterlimit="4"/><path stroke-linecap="butt" transform="matrix(0, -0.75, 0.75, 0, 329.995413, 219.537216)" fill="none" stroke-linejoin="miter" d="M -0.00246202 5.000908 L 82.461085 5.000908 " stroke="#ffffff" stroke-width="10" stroke-opacity="1" stroke-miterlimit="4"/><path stroke-linecap="butt" transform="matrix(0.75, 0, 0, 0.75, 29.774171, 235.073877)" fill="none" stroke-linejoin="miter" d="M -0.000978247 5.000457 L 84.431319 5.000457 " stroke="#ffffff" stroke-width="10" stroke-opacity="1" stroke-miterlimit="4"/><path stroke-linecap="butt" transform="matrix(0, 0.75, -0.75, 0, 37.270326, 178.480183)" fill="none" stroke-linejoin="miter" d="M 0.00038036 5.00106 L 82.463927 5.00106 " stroke="#ffffff" stroke-width="10" stroke-opacity="1" stroke-miterlimit="4"/></svg>